<svg xmlns="http://www.w3.org/2000/svg" xmlns:xlink="http://www.w3.org/1999/xlink" width="500" zoomAndPan="magnify" viewBox="0 0 375 374.999991" height="500" preserveAspectRatio="xMidYMid meet" version="1.0"><defs><g/><clipPath id="2ff0d2c2e4"><path d="M 222 92 L 234 92 L 234 103 L 222 103 Z M 222 92 " clip-rule="nonzero"/></clipPath><clipPath id="8086f59cd1"><path d="M 75.75 77.980469 L 288.53125 68.378906 L 298.976562 299.894531 L 86.195312 309.492188 Z M 75.75 77.980469 " clip-rule="nonzero"/></clipPath><clipPath id="54e838e749"><path d="M 288.777344 68.367188 L 75.996094 77.96875 L 86.441406 309.480469 L 299.222656 299.882812 Z M 288.777344 68.367188 " clip-rule="nonzero"/></clipPath><clipPath id="8c855e90b6"><path d="M 157 127 L 196 127 L 196 136 L 157 136 Z M 157 127 " clip-rule="nonzero"/></clipPath><clipPath id="cf7cdca072"><path d="M 75.75 77.980469 L 288.53125 68.378906 L 298.976562 299.894531 L 86.195312 309.492188 Z M 75.75 77.980469 " clip-rule="nonzero"/></clipPath><clipPath id="8e1617cc99"><path d="M 288.777344 68.367188 L 75.996094 77.96875 L 86.441406 309.480469 L 299.222656 299.882812 Z M 288.777344 68.367188 " clip-rule="nonzero"/></clipPath><clipPath id="2da87d2366"><path d="M 225 212 L 231 212 L 231 217 L 225 217 Z M 225 212 " clip-rule="nonzero"/></clipPath><clipPath id="e4e3673d13"><path d="M 75.75 77.980469 L 288.53125 68.378906 L 298.976562 299.894531 L 86.195312 309.492188 Z M 75.75 77.980469 " clip-rule="nonzero"/></clipPath><clipPath id="156cf6ba78"><path d="M 288.777344 68.367188 L 75.996094 77.96875 L 86.441406 309.480469 L 299.222656 299.882812 Z M 288.777344 68.367188 " clip-rule="nonzero"/></clipPath><clipPath id="4a6c07b18e"><path d="M 221 208 L 236 208 L 236 220 L 221 220 Z M 221 208 " clip-rule="nonzero"/></clipPath><clipPath id="fba3b20999"><path d="M 75.75 77.980469 L 288.53125 68.378906 L 298.976562 299.894531 L 86.195312 309.492188 Z M 75.75 77.980469 " clip-rule="nonzero"/></clipPath><clipPath id="2e44c111f5"><path d="M 288.777344 68.367188 L 75.996094 77.96875 L 86.441406 309.480469 L 299.222656 299.882812 Z M 288.777344 68.367188 " clip-rule="nonzero"/></clipPath><clipPath id="c6c0a563b9"><path d="M 83 72 L 297 72 L 297 305 L 83 305 Z M 83 72 " clip-rule="nonzero"/></clipPath><clipPath id="ce8f2b2da8"><path d="M 75.75 77.980469 L 288.53125 68.378906 L 298.976562 299.894531 L 86.195312 309.492188 Z M 75.75 77.980469 " clip-rule="nonzero"/></clipPath><clipPath id="2c5816c6d8"><path d="M 288.777344 68.367188 L 75.996094 77.96875 L 86.441406 309.480469 L 299.222656 299.882812 Z M 288.777344 68.367188 " clip-rule="nonzero"/></clipPath><clipPath id="d1d3558ea1"><path d="M 288.769531 68.367188 L 75.511719 77.988281 L 85.984375 310.113281 L 299.242188 300.492188 Z M 288.769531 68.367188 " clip-rule="nonzero"/></clipPath><clipPath id="a9f501bf7c"><path d="M 288.769531 68.367188 L 75.769531 77.976562 L 86.234375 309.867188 L 299.230469 300.257812 Z M 288.769531 68.367188 " clip-rule="nonzero"/></clipPath><clipPath id="dab31109b3"><path d="M 5.179688 194 L 43 194 L 43 232 L 5.179688 232 Z M 5.179688 194 " clip-rule="nonzero"/></clipPath><clipPath id="8105c4c5a4"><path d="M 367 234 L 369.679688 234 L 369.679688 238 L 367 238 Z M 367 234 " clip-rule="nonzero"/></clipPath><clipPath id="970445e6d9"><path d="M 201.421875 362.230469 L 202.546875 362.230469 L 202.546875 363.003906 L 201.421875 363.003906 Z M 201.421875 362.230469 " clip-rule="nonzero"/></clipPath><clipPath id="b4ad23b7ef"><path d="M 23 125.046875 L 27 125.046875 L 27 128 L 23 128 Z M 23 125.046875 " clip-rule="nonzero"/></clipPath><clipPath id="70a58356c5"><path d="M 5.179688 214 L 8 214 L 8 218 L 5.179688 218 Z M 5.179688 214 " clip-rule="nonzero"/></clipPath></defs><g fill="#0c3a76" fill-opacity="1"><g transform="translate(50.558996, 119.324221)"><g><path d="M 13.46875 -18.953125 L -1.921875 -29.90625 L 5.140625 -14.609375 L 4.359375 -13.53125 L -12.40625 -15.15625 L 2.984375 -4.203125 L 1.671875 -2.34375 L -17.078125 -15.671875 L -15.71875 -17.578125 L 2.3125 -15.765625 L -5.296875 -32.25 L -3.953125 -34.140625 L 14.796875 -20.8125 Z M 13.46875 -18.953125 "/></g></g></g><g fill="#0c3a76" fill-opacity="1"><g transform="translate(69.107285, 94.163419)"><g><path d="M -8.953125 -23.4375 L -7.59375 -24.765625 L 15.328125 -15.03125 L 13.609375 -13.359375 L 6.453125 -16.390625 L -0.921875 -9.15625 L 2 -1.96875 L 0.28125 -0.28125 Z M 4.84375 -17.3125 L -6.4375 -22.1875 L -1.828125 -10.78125 Z M 4.84375 -17.3125 "/></g></g></g><g fill="#0c3a76" fill-opacity="1"><g transform="translate(86.780672, 76.773471)"><g><path d="M 19.203125 -13.109375 L 8.546875 -28.703125 L 9.859375 -11.921875 L 8.765625 -11.171875 L -6.390625 -18.5 L 4.265625 -2.90625 L 2.375 -1.625 L -10.59375 -20.625 L -8.65625 -21.9375 L 7.625 -13.984375 L 6.203125 -32.09375 L 8.109375 -33.390625 L 21.078125 -14.390625 Z M 19.203125 -13.109375 "/></g></g></g><g fill="#0c3a76" fill-opacity="1"><g transform="translate(112.89495, 59.593606)"><g><path d="M -0.28125 -25.09375 L 1.453125 -25.875 L 19.578125 -8.796875 L 17.40625 -7.8125 L 11.734375 -13.15625 L 2.3125 -8.921875 L 2.5625 -1.15625 L 0.359375 -0.15625 Z M 10.53125 -14.578125 L 1.640625 -23.046875 L 2.03125 -10.75 Z M 0.859375 -29.6875 C 0.410156 -29.488281 0 -29.375 -0.375 -29.34375 C -0.757812 -29.3125 -1.125 -29.304688 -1.46875 -29.328125 C -1.820312 -29.347656 -2.160156 -29.359375 -2.484375 -29.359375 C -2.804688 -29.367188 -3.128906 -29.300781 -3.453125 -29.15625 C -3.773438 -29.007812 -4 -28.820312 -4.125 -28.59375 C -4.257812 -28.375 -4.34375 -28.15625 -4.375 -27.9375 C -4.414062 -27.726562 -4.414062 -27.546875 -4.375 -27.390625 C -4.332031 -27.234375 -4.300781 -27.132812 -4.28125 -27.09375 L -5.53125 -26.53125 C -5.570312 -26.625 -5.625 -26.835938 -5.6875 -27.171875 C -5.757812 -27.515625 -5.769531 -27.890625 -5.71875 -28.296875 C -5.664062 -28.703125 -5.515625 -29.101562 -5.265625 -29.5 C -5.015625 -29.90625 -4.613281 -30.226562 -4.0625 -30.46875 C -3.65625 -30.65625 -3.269531 -30.753906 -2.90625 -30.765625 C -2.539062 -30.785156 -2.179688 -30.773438 -1.828125 -30.734375 C -1.484375 -30.703125 -1.140625 -30.6875 -0.796875 -30.6875 C -0.453125 -30.6875 -0.0976562 -30.769531 0.265625 -30.9375 C 0.648438 -31.101562 0.921875 -31.304688 1.078125 -31.546875 C 1.242188 -31.785156 1.34375 -32.019531 1.375 -32.25 C 1.40625 -32.488281 1.40625 -32.6875 1.375 -32.84375 C 1.34375 -33 1.316406 -33.097656 1.296875 -33.140625 L 2.53125 -33.703125 C 2.570312 -33.609375 2.625 -33.390625 2.6875 -33.046875 C 2.75 -32.710938 2.742188 -32.34375 2.671875 -31.9375 C 2.609375 -31.53125 2.4375 -31.117188 2.15625 -30.703125 C 1.882812 -30.285156 1.453125 -29.945312 0.859375 -29.6875 Z M 0.859375 -29.6875 "/></g></g></g><g fill="#0c3a76" fill-opacity="1"><g transform="translate(135.827352, 49.634723)"><g><path d="M 17.109375 -6.84375 L 17.65625 -4.90625 L 2.765625 -0.765625 L -3.390625 -22.921875 L 11.234375 -26.984375 L 11.765625 -25.046875 L -0.65625 -21.59375 L 1.5625 -13.609375 L 12.390625 -16.625 L 12.90625 -14.78125 L 2.078125 -11.765625 L 4.421875 -3.3125 Z M 17.109375 -6.84375 "/></g></g></g><g fill="#0c3a76" fill-opacity="1"><g transform="translate(158.320078, 43.905743)"><g/></g></g><g fill="#0c3a76" fill-opacity="1"><g transform="translate(169.877795, 41.857856)"><g><path d="M 2.875 -0.125 L 1.8125 -23.09375 L 11.515625 -23.546875 C 12.515625 -23.585938 13.4375 -23.421875 14.28125 -23.046875 C 15.132812 -22.671875 15.878906 -22.15625 16.515625 -21.5 C 17.148438 -20.84375 17.65625 -20.09375 18.03125 -19.25 C 18.414062 -18.40625 18.628906 -17.539062 18.671875 -16.65625 C 18.703125 -15.8125 18.609375 -15 18.390625 -14.21875 C 18.179688 -13.445312 17.867188 -12.738281 17.453125 -12.09375 C 17.046875 -11.457031 16.535156 -10.914062 15.921875 -10.46875 C 15.316406 -10.019531 14.628906 -9.703125 13.859375 -9.515625 L 19.90625 -0.921875 L 17.34375 -0.796875 L 11.546875 -9.015625 L 4.765625 -8.703125 L 5.15625 -0.234375 Z M 4.671875 -10.71875 L 12.171875 -11.0625 C 12.835938 -11.09375 13.441406 -11.265625 13.984375 -11.578125 C 14.523438 -11.898438 14.972656 -12.316406 15.328125 -12.828125 C 15.691406 -13.347656 15.96875 -13.921875 16.15625 -14.546875 C 16.351562 -15.179688 16.4375 -15.847656 16.40625 -16.546875 C 16.375 -17.234375 16.21875 -17.890625 15.9375 -18.515625 C 15.65625 -19.140625 15.289062 -19.679688 14.84375 -20.140625 C 14.40625 -20.597656 13.890625 -20.953125 13.296875 -21.203125 C 12.710938 -21.453125 12.109375 -21.566406 11.484375 -21.546875 L 4.1875 -21.203125 Z M 4.671875 -10.71875 "/></g></g></g><g fill="#0c3a76" fill-opacity="1"><g transform="translate(194.085212, 40.951939)"><g><path d="M 12.453125 -21.765625 L 14.34375 -21.5625 L 21.34375 2.34375 L 18.96875 2.078125 L 16.78125 -5.390625 L 6.515625 -6.515625 L 2.796875 0.3125 L 0.390625 0.046875 Z M 16.46875 -7.21875 L 13.109375 -19.03125 L 7.203125 -8.234375 Z M 16.46875 -7.21875 "/></g></g></g><g fill="#0c3a76" fill-opacity="1"><g transform="translate(218.830678, 43.860446)"><g><path d="M 2.765625 0.765625 L 8.90625 -21.390625 L 16.4375 -19.296875 C 18.207031 -18.804688 19.671875 -18.085938 20.828125 -17.140625 C 21.992188 -16.203125 22.878906 -15.109375 23.484375 -13.859375 C 24.097656 -12.617188 24.441406 -11.265625 24.515625 -9.796875 C 24.585938 -8.328125 24.410156 -6.832031 23.984375 -5.3125 C 23.515625 -3.625 22.84375 -2.171875 21.96875 -0.953125 C 21.09375 0.265625 20.054688 1.226562 18.859375 1.9375 C 17.671875 2.65625 16.351562 3.097656 14.90625 3.265625 C 13.457031 3.441406 11.921875 3.304688 10.296875 2.859375 Z M 21.8125 -5.921875 C 22.1875 -7.253906 22.335938 -8.523438 22.265625 -9.734375 C 22.191406 -10.953125 21.910156 -12.066406 21.421875 -13.078125 C 20.929688 -14.085938 20.226562 -14.957031 19.3125 -15.6875 C 18.394531 -16.425781 17.257812 -16.984375 15.90625 -17.359375 L 10.578125 -18.84375 L 5.5 -0.5625 L 10.828125 0.921875 C 12.203125 1.296875 13.476562 1.394531 14.65625 1.21875 C 15.84375 1.039062 16.898438 0.640625 17.828125 0.015625 C 18.765625 -0.609375 19.570312 -1.425781 20.25 -2.4375 C 20.925781 -3.445312 21.445312 -4.609375 21.8125 -5.921875 Z M 21.8125 -5.921875 "/></g></g></g><g fill="#0c3a76" fill-opacity="1"><g transform="translate(244.227216, 51.580979)"><g><path d="M 2.65625 1.09375 L 11.40625 -20.171875 L 13.515625 -19.296875 L 4.765625 1.96875 Z M 2.65625 1.09375 "/></g></g></g><g fill="#0c3a76" fill-opacity="1"><g transform="translate(254.935953, 55.769866)"><g><path d="M 19.90625 -15.25 L 21.578125 -14.328125 L 18.765625 10.421875 L 16.671875 9.265625 L 17.5625 1.53125 L 8.53125 -3.484375 L 2.453125 1.359375 L 0.34375 0.1875 Z M 17.984375 -0.28125 L 19.453125 -12.46875 L 9.828125 -4.8125 Z M 17.984375 -0.28125 "/></g></g></g><g fill="#0c3a76" fill-opacity="1"><g transform="translate(276.622413, 67.949645)"><g><path d="M 15.75 -11.46875 L 4.03125 3.21875 L 2.25 1.796875 L 16.59375 -16.1875 L 17.953125 -15.09375 L 17.921875 9.375 L 29.84375 -5.5625 L 31.625 -4.15625 L 17.296875 13.796875 L 15.75 12.5625 Z M 15.75 -11.46875 "/></g></g></g><g fill="#0c3a76" fill-opacity="1"><g transform="translate(298.23694, 85.770723)"><g><path d="M 28.453125 0.125 L 22.953125 -5.9375 L 7.40625 8.15625 L 5.875 6.484375 L 21.421875 -7.609375 L 15.921875 -13.6875 L 17.40625 -15.046875 L 29.9375 -1.234375 Z M 28.453125 0.125 "/></g></g></g><g fill="#0c3a76" fill-opacity="1"><g transform="translate(313.475108, 102.9018)"><g><path d="M 11.90625 14.078125 L 10.234375 15.203125 L 1.609375 2.390625 L 20.6875 -10.453125 L 29.15625 2.125 L 27.484375 3.25 L 20.28125 -7.4375 L 13.421875 -2.8125 L 19.703125 6.5 L 18.09375 7.578125 L 11.8125 -1.734375 L 4.546875 3.15625 Z M 11.90625 14.078125 "/></g></g></g><g clip-path="url(#2ff0d2c2e4)"><g clip-path="url(#8086f59cd1)"><g clip-path="url(#54e838e749)"><path fill="#0c3a76" d="M 232.566406 102.003906 C 231.316406 102.179688 228.683594 101.1875 226.582031 99.75 L 224.765625 98.507812 L 224.832031 99.640625 C 224.890625 100.683594 224.847656 100.773438 224.273438 100.800781 C 223.71875 100.824219 223.621094 100.691406 223.386719 99.59375 C 223.242188 98.914062 222.910156 97.527344 222.648438 96.507812 C 222.390625 95.492188 222.144531 94.214844 222.105469 93.667969 C 222.046875 92.816406 222.113281 92.65625 222.589844 92.566406 C 223 92.492188 223.21875 92.632812 223.425781 93.109375 C 223.578125 93.460938 223.710938 93.863281 223.714844 93.996094 C 223.746094 94.628906 224.957031 96.285156 226.238281 97.433594 C 227.824219 98.863281 230.6875 100.320312 232.300781 100.519531 C 233.21875 100.632812 233.371094 100.738281 233.394531 101.269531 C 233.417969 101.789062 233.289062 101.902344 232.566406 102.003906 " fill-opacity="1" fill-rule="nonzero"/></g></g></g><g clip-path="url(#8c855e90b6)"><g clip-path="url(#cf7cdca072)"><g clip-path="url(#8e1617cc99)"><path fill="#0c3a76" d="M 194.996094 134.40625 C 194.046875 134.929688 189.90625 135.289062 188.597656 134.960938 C 188.058594 134.824219 185.980469 133.902344 183.980469 132.910156 C 179.78125 130.828125 177.605469 130.140625 173.660156 129.65625 C 171.265625 129.359375 164.996094 129.175781 159.105469 129.226562 C 157.738281 129.238281 157.230469 129.164062 157.5 128.652344 C 157.652344 128.355469 160.308594 127.625 166.570312 127.707031 C 169.203125 127.742188 172.636719 127.914062 174.191406 128.109375 C 178.675781 128.675781 179.9375 129.117188 186.933594 132.558594 C 188.929688 133.539062 189.019531 133.558594 191.210938 133.441406 C 192.441406 133.375 193.988281 133.207031 194.644531 133.0625 C 195.808594 132.8125 195.839844 132.824219 195.78125 133.402344 C 195.746094 133.765625 195.4375 134.15625 194.996094 134.40625 " fill-opacity="1" fill-rule="nonzero"/></g></g></g><g clip-path="url(#2da87d2366)"><g clip-path="url(#e4e3673d13)"><g clip-path="url(#156cf6ba78)"><path fill="#0c3a76" d="M 229.332031 214.300781 C 228.628906 214.695312 227.765625 215.242188 227.414062 215.511719 C 226.621094 216.128906 225.773438 216.1875 225.539062 215.648438 C 225.3125 215.128906 226.511719 213.992188 228.261719 213.0625 C 229.554688 212.378906 230.089844 212.242188 230.394531 212.519531 C 230.90625 212.992188 230.527344 213.628906 229.332031 214.300781 " fill-opacity="1" fill-rule="nonzero"/></g></g></g><g clip-path="url(#4a6c07b18e)"><g clip-path="url(#fba3b20999)"><g clip-path="url(#2e44c111f5)"><path fill="#0c3a76" d="M 229.597656 218.847656 C 227.867188 219.777344 227.640625 219.835938 225.230469 219.941406 C 222.554688 220.0625 221.710938 219.792969 222.003906 218.90625 C 222.117188 218.570312 222.5625 218.492188 224.675781 218.429688 C 227.0625 218.363281 227.300781 218.308594 228.789062 217.492188 C 231.957031 215.753906 233.777344 213.351562 233.394531 211.40625 C 232.988281 209.335938 232.996094 208.886719 233.417969 208.78125 C 233.640625 208.726562 234.070312 208.972656 234.375 209.328125 C 235.253906 210.347656 235.261719 212.632812 234.394531 214.320312 C 233.492188 216.070312 231.8125 217.652344 229.597656 218.847656 " fill-opacity="1" fill-rule="nonzero"/></g></g></g><g clip-path="url(#c6c0a563b9)"><g clip-path="url(#ce8f2b2da8)"><g clip-path="url(#2c5816c6d8)"><g clip-path="url(#d1d3558ea1)"><g clip-path="url(#a9f501bf7c)"><path fill="#0c3a76" d="M 226.835938 266 C 227 266.265625 227.167969 266.53125 227.203125 266.585938 C 227.292969 266.722656 232.445312 262.882812 233.535156 261.871094 L 234.371094 261.09375 L 232.027344 261.660156 C 230.738281 261.972656 225.855469 263.144531 221.175781 264.265625 C 216.496094 265.386719 210.75 266.828125 208.410156 267.46875 C 206.070312 268.109375 203.421875 268.785156 202.527344 268.972656 C 200 269.492188 199.167969 270.113281 195.628906 274.101562 C 193.835938 276.125 192.371094 277.84375 192.375 277.925781 C 192.375 278.117188 195.605469 278.917969 197.382812 279.167969 C 199.585938 279.480469 203.300781 279.203125 205.488281 278.566406 C 210.15625 277.210938 212.191406 275.875 216.722656 271.183594 C 221.351562 266.394531 222.734375 265.464844 225.207031 265.496094 C 226.234375 265.507812 226.609375 265.625 226.835938 266 Z M 177.460938 269.472656 C 171.800781 267.324219 164.371094 263.832031 160.585938 261.546875 C 155.96875 258.75 152 255.054688 151.296875 252.898438 C 151.144531 252.417969 150.390625 251.355469 149.625 250.53125 C 148.113281 248.902344 147.503906 247.65625 147.625 246.4375 C 147.675781 245.941406 147.523438 245.382812 147.210938 244.917969 C 146.511719 243.878906 146.539062 242.957031 147.300781 242.023438 C 147.757812 241.464844 148.25 241.171875 148.957031 241.046875 C 149.78125 240.898438 150.007812 240.730469 150.203125 240.132812 C 150.867188 238.097656 154.167969 238.457031 159.621094 241.164062 C 163.945312 243.3125 169.199219 244.785156 172.054688 244.660156 L 173.203125 244.605469 L 172.148438 243.511719 C 170.394531 241.691406 170.113281 240.640625 169.882812 235.03125 C 169.726562 231.3125 169.765625 229.738281 170.035156 228.292969 C 170.230469 227.253906 170.4375 226.171875 170.492188 225.882812 C 170.589844 225.355469 170.578125 225.355469 168.03125 225.78125 C 165.230469 226.253906 165.40625 226.210938 161.535156 227.3125 C 157.304688 228.511719 152.203125 230.464844 152.40625 230.800781 C 153.410156 232.449219 154.804688 235.335938 154.757812 235.660156 C 154.722656 235.898438 154.445312 236.140625 154.136719 236.195312 C 153.660156 236.285156 153.4375 236.03125 152.582031 234.394531 C 151.292969 231.9375 148.203125 227.667969 146.058594 225.386719 C 141.644531 220.683594 136.113281 217.476562 131.6875 217.054688 C 130.105469 216.902344 126.78125 217.128906 125.398438 217.480469 C 124.683594 217.664062 124.539062 217.894531 123.585938 220.441406 C 120.675781 228.214844 117.035156 240.585938 115.453125 248.085938 C 114.871094 250.851562 114.359375 253.34375 114.316406 253.621094 C 114.253906 254.035156 114.753906 254.386719 117.113281 255.59375 C 118.695312 256.402344 121.714844 258.015625 123.824219 259.179688 C 125.9375 260.347656 127.789062 261.363281 127.941406 261.4375 C 128.09375 261.515625 127.847656 260.449219 127.390625 259.070312 C 126.304688 255.773438 125.453125 252.226562 124.996094 249.0625 C 124.3125 244.328125 124.117188 235.050781 124.65625 233.03125 C 124.730469 232.75 125.023438 232.566406 125.414062 232.550781 C 126.042969 232.523438 126.046875 232.535156 125.96875 234.082031 C 125.777344 237.851562 125.988281 244.558594 126.398438 247.726562 C 127.015625 252.5 127.671875 255.09375 129.691406 260.75 C 130.320312 262.511719 130.558594 262.886719 131.347656 263.375 C 141.1875 269.460938 149.9375 274.167969 161.167969 279.421875 L 163.996094 280.742188 L 165.898438 279.285156 C 169.300781 276.675781 174.519531 273.367188 177.390625 271.996094 C 178.933594 271.257812 180.222656 270.632812 180.253906 270.605469 C 180.285156 270.578125 179.03125 270.066406 177.460938 269.472656 Z M 179.128906 244.0625 C 180.828125 243.855469 183.441406 243.46875 184.933594 243.199219 C 186.421875 242.929688 188.117188 242.6875 188.695312 242.660156 C 189.273438 242.632812 189.800781 242.519531 189.867188 242.398438 C 190.195312 241.8125 184.683594 237.800781 180.484375 235.574219 C 176.320312 233.363281 175.625 232.9375 174.675781 232.011719 C 173.785156 231.136719 172.988281 229.054688 172.945312 228.09375 C 172.90625 227.210938 173.570312 226.015625 175.53125 225.800781 C 176.730469 225.671875 181.617188 227.222656 183.792969 228.296875 C 187.230469 229.992188 188.832031 230.699219 189.054688 230.613281 C 189.179688 230.5625 189.710938 228.882812 190.234375 226.875 C 191.375 222.511719 192.800781 218.417969 194.183594 215.546875 L 195.195312 213.445312 L 193.003906 213.542969 C 190.652344 213.648438 189.832031 213.382812 189.953125 212.550781 C 190.019531 212.117188 190.277344 212.0625 192.882812 211.933594 C 195.535156 211.800781 195.839844 211.734375 197.078125 211.015625 C 201.933594 208.203125 205.445312 203.007812 205.261719 198.910156 C 205.1875 197.3125 204.214844 195.445312 203.164062 194.890625 C 202.328125 194.445312 201.5625 194.300781 201.574219 194.589844 C 201.578125 194.664062 201.832031 195.164062 202.136719 195.703125 C 202.828125 196.917969 202.832031 198.261719 202.144531 198.292969 C 201.882812 198.304688 201.585938 198.152344 201.484375 197.949219 C 199.589844 194.308594 198.363281 192.855469 197.222656 192.90625 C 196.714844 192.929688 196.714844 192.945312 197.183594 193.59375 C 197.445312 193.960938 198 194.6875 198.417969 195.210938 C 199.238281 196.242188 199.367188 197.363281 198.683594 197.527344 C 198.425781 197.585938 197.835938 197.042969 197.019531 195.980469 C 195.378906 193.855469 194.015625 192.554688 193.453125 192.578125 C 193.207031 192.589844 193.011719 192.6875 193.015625 192.796875 C 193.019531 192.90625 193.492188 193.410156 194.066406 193.921875 C 194.679688 194.472656 195.113281 195.082031 195.128906 195.417969 C 195.175781 196.425781 194.214844 196.140625 192.433594 194.617188 C 190.789062 193.214844 190.179688 192.996094 189.320312 193.507812 C 188.71875 193.863281 187.898438 195.460938 187.933594 196.210938 L 187.960938 196.820312 L 188.921875 196.121094 C 189.449219 195.738281 190.054688 195.480469 190.265625 195.550781 C 190.675781 195.6875 190.867188 196.933594 190.480469 196.949219 C 190.355469 196.957031 189.648438 197.5625 188.914062 198.300781 C 187.261719 199.953125 185.863281 202.511719 185.476562 204.59375 C 184.929688 207.546875 184.066406 208.878906 177.777344 216.46875 C 175.621094 219.070312 173.183594 223 172.527344 224.925781 C 171.136719 229.003906 170.796875 235.832031 171.800781 239.546875 C 172.257812 241.230469 172.480469 241.632812 173.527344 242.65625 C 175.363281 244.449219 175.542969 244.492188 179.128906 244.0625 Z M 203.164062 210.289062 L 203.058594 208.121094 L 202.222656 208.988281 C 201.765625 209.464844 200.792969 210.332031 200.066406 210.914062 C 199.339844 211.5 198.414062 212.164062 198.007812 212.394531 C 196.765625 213.09375 193.539062 220.582031 192.132812 226.039062 C 191.972656 226.65625 191.875 227.191406 191.917969 227.230469 C 191.960938 227.269531 193.15625 227.074219 194.570312 226.796875 C 196.089844 226.5 199.820312 226.113281 203.667969 225.851562 L 210.1875 225.414062 L 209.363281 224.558594 C 205.882812 220.9375 203.410156 215.25 203.164062 210.289062 Z M 192.179688 231.769531 C 194.957031 232.667969 198.765625 234.207031 201.425781 235.507812 C 204.9375 237.222656 210.324219 239.484375 212.226562 240.042969 C 215.914062 241.125 216.90625 241.246094 220.625 241.066406 C 224.058594 240.898438 224.382812 240.839844 227.304688 239.820312 C 228.992188 239.230469 231.140625 238.375 232.078125 237.917969 C 235.980469 236.023438 240.039062 234.140625 240.917969 233.816406 C 242.25 233.320312 247.796875 230.914062 250.53125 229.644531 C 255.644531 227.269531 257.839844 226.359375 259.953125 225.726562 C 262.941406 224.832031 263.3125 224.585938 264.539062 222.691406 C 267.242188 218.519531 268.761719 213.324219 269.214844 206.710938 C 269.863281 197.273438 265.601562 188.273438 257.765625 182.53125 C 253.730469 179.566406 250.371094 178.539062 242.332031 177.800781 C 241.050781 177.683594 237.089844 178.132812 234.953125 178.636719 C 229.828125 179.851562 224.929688 182.285156 222.59375 184.78125 C 221.808594 185.617188 220.589844 187.429688 219.648438 189.148438 C 217.695312 192.71875 214.292969 196.609375 210.644531 199.449219 C 208.003906 201.503906 206.675781 203.191406 205.488281 205.996094 C 203.539062 210.597656 205.628906 217.867188 210.492188 223.417969 C 212.425781 225.621094 212.074219 225.476562 217.179688 226.136719 C 220.867188 226.613281 225.46875 227.839844 229.832031 229.511719 C 234.078125 231.136719 235.675781 231.972656 235.703125 232.585938 C 235.746094 233.519531 234.964844 233.410156 231.734375 232.039062 C 221.609375 227.742188 214.308594 226.542969 203.304688 227.378906 C 198.957031 227.707031 193.613281 228.425781 191.75 228.933594 C 191.421875 229.023438 191.1875 229.332031 191.117188 229.769531 C 191.058594 230.152344 190.945312 230.652344 190.871094 230.882812 C 190.757812 231.210938 191.039062 231.398438 192.179688 231.769531 Z M 84.65625 253.710938 C 85.917969 248.03125 89.507812 234.425781 91.082031 229.363281 C 93.644531 221.109375 96.300781 211.738281 98.175781 204.355469 C 102.242188 188.335938 102.800781 186.074219 104.167969 180.023438 C 107.316406 166.101562 110.109375 157.191406 114.40625 147.398438 C 121.097656 132.144531 126.019531 127.859375 139.011719 125.96875 C 147.585938 124.722656 155.4375 123.1875 158.289062 122.191406 C 163.34375 120.433594 170.214844 115.585938 174.011719 111.101562 C 180.640625 103.273438 185.050781 94.597656 188.375 82.847656 C 189.039062 80.5 189.355469 79.023438 190.246094 74.164062 C 190.488281 72.84375 190.996094 72.429688 191.582031 73.078125 C 192.308594 73.875 190.574219 81.859375 188.160156 88.839844 C 182.765625 104.429688 174.28125 115.738281 163.5 121.714844 C 159.425781 123.976562 156.652344 124.769531 147.921875 126.1875 C 144.964844 126.664062 140.542969 127.378906 138.09375 127.777344 C 129.085938 129.234375 125.359375 131.523438 120.902344 138.34375 C 117.640625 143.335938 114.746094 149.824219 111.019531 160.515625 C 109.6875 164.324219 107.402344 172.957031 105.492188 181.378906 C 102.601562 194.121094 96.585938 217.164062 94.273438 224.355469 C 91.960938 231.546875 87.328125 248.621094 86.332031 253.636719 C 84.847656 261.105469 85.15625 262.308594 89.585938 266.34375 C 92.351562 268.863281 98.304688 273.261719 101.867188 275.421875 C 110.242188 280.492188 125.921875 287.203125 139.878906 291.6875 C 148.898438 294.585938 154.339844 296.003906 161.175781 297.246094 C 163.101562 297.597656 166.269531 298.1875 168.21875 298.558594 C 172.148438 299.308594 182.269531 300.871094 185.1875 301.175781 C 186.222656 301.28125 187.636719 301.5 188.328125 301.660156 C 190.207031 302.097656 199.605469 303.257812 200.8125 303.203125 C 201.984375 303.148438 204.222656 302.066406 205.890625 300.738281 C 207.007812 299.855469 212.976562 293.953125 213.980469 292.742188 C 214.730469 291.839844 214.300781 292.113281 212.042969 293.976562 C 208.878906 296.589844 204.300781 299.835938 203.867188 299.773438 C 203.636719 299.742188 203.402344 299.472656 203.347656 299.175781 C 203.265625 298.742188 203.675781 298.324219 205.492188 296.980469 C 206.730469 296.066406 208.660156 294.589844 209.785156 293.699219 C 210.914062 292.804688 213.078125 291.089844 214.601562 289.882812 C 217.621094 287.492188 218.589844 286.585938 218.96875 285.800781 C 219.164062 285.394531 219.050781 285.4375 218.394531 286.019531 C 216.546875 287.652344 212.980469 290.28125 208.625 293.214844 C 203.851562 296.433594 202.699219 296.9375 202.652344 295.828125 C 202.636719 295.390625 203.050781 295 204.507812 294.070312 C 207.292969 292.289062 212.648438 288.566406 214.839844 286.886719 C 217.386719 284.933594 220.089844 281.972656 221.597656 279.484375 C 222.820312 277.472656 225.273438 272.1875 225.246094 271.628906 C 225.238281 271.464844 224.785156 272.074219 224.242188 272.984375 C 220.347656 279.472656 219.1875 280.929688 216.628906 282.570312 C 213.640625 284.484375 203.839844 289.128906 202.296875 289.359375 C 201.171875 289.53125 201.121094 289.511719 201.09375 288.914062 C 201.070312 288.382812 201.253906 288.21875 202.335938 287.808594 C 204.191406 287.109375 211.308594 283.703125 214.136719 282.164062 C 215.476562 281.433594 217.082031 280.347656 217.695312 279.753906 C 218.628906 278.855469 220.4375 276.140625 225.035156 268.726562 C 225.769531 267.542969 225.714844 266.921875 224.882812 266.960938 C 223.640625 267.015625 221.457031 268.625 218.554688 271.621094 C 215.644531 274.625 212.449219 277.398438 210.839844 278.3125 C 207.925781 279.96875 202.527344 281.101562 198.71875 280.855469 C 195.097656 280.621094 190.144531 279.292969 189.964844 278.507812 C 189.917969 278.304688 191.710938 276.105469 193.976562 273.589844 C 197.703125 269.457031 198.296875 268.90625 200.484375 267.5625 C 201.8125 266.746094 203.308594 265.753906 203.8125 265.351562 C 204.972656 264.433594 206.140625 262.675781 206.105469 261.902344 C 206.074219 261.175781 205.070312 260.78125 203.96875 261.058594 C 203.550781 261.164062 200.472656 262.703125 197.121094 264.476562 C 191.449219 267.476562 186.421875 269.859375 180.523438 272.34375 C 176.449219 274.058594 171.871094 276.820312 166.621094 280.738281 C 165.390625 281.65625 164.210938 282.414062 164 282.421875 C 163.789062 282.433594 162.390625 281.835938 160.890625 281.09375 C 159.394531 280.351562 155.988281 278.695312 153.324219 277.414062 C 146.695312 274.21875 142.941406 272.167969 134.277344 267.007812 C 124.609375 261.25 114.566406 255.894531 111.539062 254.886719 C 110.496094 254.539062 108.222656 253.949219 106.492188 253.582031 C 103.078125 252.851562 102.714844 252.699219 102.683594 251.996094 C 102.664062 251.621094 102.847656 251.519531 103.605469 251.488281 C 104.519531 251.445312 109.875 252.59375 111.753906 253.234375 L 112.675781 253.546875 L 113.097656 251.609375 C 113.332031 250.539062 113.894531 247.910156 114.34375 245.765625 C 115.75 239.097656 119.699219 226.078125 122.519531 218.8125 C 123.328125 216.734375 124.96875 212.296875 126.164062 208.953125 C 128.148438 203.421875 129.339844 200.148438 132.214844 192.347656 C 133.078125 190.007812 133.269531 189.683594 133.800781 189.660156 C 134.308594 189.636719 134.402344 189.746094 134.410156 190.378906 C 134.410156 190.792969 133.292969 194.152344 131.921875 197.847656 C 130.550781 201.542969 128.582031 206.960938 127.542969 209.890625 C 126.507812 212.8125 125.617188 215.324219 125.566406 215.460938 C 125.507812 215.625 131.179688 214.960938 134.746094 216.078125 C 138.757812 217.335938 142.289062 219.460938 145.851562 222.910156 C 147.398438 224.410156 149.773438 227.148438 151.019531 228.878906 L 151.429688 229.445312 L 152.390625 228.90625 C 155.027344 227.429688 162.75 225.089844 167.796875 224.238281 C 171.242188 223.660156 171.257812 223.652344 171.609375 222.875 C 172.488281 220.9375 175.164062 217.121094 178.503906 213.050781 C 182.5 208.179688 183.433594 206.664062 183.933594 204.242188 C 184.324219 202.375 184.871094 201.058594 185.980469 199.339844 C 186.648438 198.308594 186.722656 198.03125 186.492188 197.492188 C 186.039062 196.441406 186.128906 195.589844 186.839844 194.207031 C 187.847656 192.253906 189.433594 191.230469 190.773438 191.671875 C 191.191406 191.8125 191.511719 191.757812 191.832031 191.503906 C 192.425781 191.023438 194.175781 190.949219 194.84375 191.371094 C 195.253906 191.632812 195.609375 191.636719 196.53125 191.398438 C 197.800781 191.066406 198.324219 191.242188 199.800781 192.5 C 200.382812 192.992188 200.726562 193.085938 201.609375 192.992188 C 202.703125 192.871094 203.917969 193.257812 204.882812 194.023438 C 205.824219 194.777344 206.664062 196.902344 206.75 198.753906 L 206.828125 200.476562 L 207.726562 199.714844 C 208.222656 199.292969 209.375 198.378906 210.292969 197.675781 C 211.207031 196.976562 212.941406 195.335938 214.148438 194.035156 C 216.253906 191.761719 217.023438 190.636719 218.726562 187.347656 C 220.976562 183 225.515625 179.761719 232.160156 177.761719 C 236.757812 176.375 239.855469 176.042969 244.464844 176.4375 C 250.957031 176.992188 254.839844 178.324219 258.921875 181.410156 C 264.175781 185.375 267.890625 190.585938 269.609375 196.398438 C 272.003906 204.492188 270.640625 215.847656 266.449219 222.683594 C 266.0625 223.3125 265.773438 223.847656 265.800781 223.867188 C 265.832031 223.890625 266.6875 223.710938 267.707031 223.472656 C 269.980469 222.933594 277.390625 222.328125 278.761719 222.566406 C 279.601562 222.710938 279.773438 222.839844 279.796875 223.351562 L 279.824219 223.960938 L 277.082031 224 C 270.039062 224.097656 262.316406 226.113281 253.054688 230.269531 C 250.027344 231.625 245.296875 233.703125 242.539062 234.882812 C 239.78125 236.0625 236.167969 237.699219 234.511719 238.523438 C 231.046875 240.242188 226.933594 241.769531 224.285156 242.320312 C 223.164062 242.554688 221.261719 242.703125 219.394531 242.703125 C 214.054688 242.703125 210.492188 241.582031 199.726562 236.5 C 197.835938 235.609375 194.351562 234.21875 191.992188 233.410156 C 187.316406 231.808594 186.382812 231.429688 184.175781 230.210938 C 182.246094 229.144531 177.085938 227.476562 175.890625 227.53125 C 174.351562 227.597656 174.167969 228.132812 175.121094 229.773438 C 175.976562 231.242188 177.078125 232.003906 182.078125 234.597656 C 186.398438 236.835938 192.609375 241.894531 192.492188 243.078125 C 192.449219 243.542969 192.21875 243.648438 190.707031 243.886719 C 189.753906 244.035156 187.582031 244.386719 185.882812 244.664062 C 178.265625 245.921875 171.34375 246.4375 168.484375 245.960938 C 166.21875 245.585938 163.488281 244.617188 158.730469 242.511719 C 154.046875 240.441406 152.460938 239.996094 151.90625 240.605469 C 151.585938 240.953125 151.636719 241.121094 152.382812 242.140625 C 152.839844 242.769531 153.578125 243.527344 154.019531 243.824219 C 159.570312 247.53125 162.996094 249.710938 163.9375 250.132812 C 165.667969 250.914062 168.082031 251.441406 173.882812 252.296875 C 176.78125 252.726562 179.359375 253.128906 179.609375 253.195312 C 180.273438 253.371094 180.113281 254.371094 179.402344 254.503906 C 178.476562 254.679688 168.105469 253.082031 165.597656 252.378906 C 163.128906 251.6875 162.613281 251.402344 156.3125 247.277344 C 154.035156 245.785156 152.105469 244.320312 151.605469 243.710938 C 150.703125 242.605469 149.6875 242.238281 148.871094 242.722656 C 148.109375 243.175781 148.359375 244.039062 149.558594 245.089844 C 150.992188 246.347656 157.667969 251.144531 159.765625 252.429688 C 162.496094 254.09375 166.792969 255.761719 172.363281 257.320312 C 177.382812 258.722656 177.671875 258.835938 177.773438 259.453125 C 177.867188 260.007812 177.789062 260.109375 177.242188 260.132812 C 176.304688 260.175781 166.332031 257.308594 163.890625 256.296875 C 161.015625 255.105469 157.335938 252.882812 153.097656 249.785156 C 151.128906 248.34375 149.46875 247.214844 149.410156 247.277344 C 148.804688 247.941406 153 251.800781 156.785156 254.054688 C 158.320312 254.96875 162.496094 257.027344 166.066406 258.628906 C 175.617188 262.917969 175.730469 262.976562 175.761719 263.628906 C 175.804688 264.480469 174.640625 264.40625 172.726562 263.425781 C 171.835938 262.96875 168.414062 261.40625 165.125 259.949219 C 161.839844 258.492188 158.109375 256.683594 156.84375 255.925781 C 153.914062 254.179688 153.777344 254.144531 155.203125 255.507812 C 158.4375 258.59375 164.328125 262.121094 171.476562 265.246094 C 175.457031 266.988281 182.210938 269.632812 182.628906 269.613281 C 183.339844 269.582031 191.207031 265.820312 196.1875 263.132812 C 199.335938 261.433594 202.410156 259.886719 203.023438 259.695312 C 204.683594 259.171875 206.324219 259.417969 207.148438 260.3125 C 207.515625 260.710938 207.820312 261.210938 207.832031 261.421875 C 207.878906 262.515625 207.226562 263.976562 206.09375 265.320312 L 204.847656 266.792969 L 207.882812 265.960938 C 209.550781 265.5 215.566406 264.007812 221.25 262.640625 C 226.9375 261.273438 234.25 259.488281 237.503906 258.667969 C 246.5 256.410156 246.957031 256.308594 253.03125 255.21875 C 259.566406 254.042969 262.664062 253.261719 267.972656 251.457031 C 276.441406 248.574219 281.234375 246.25 285.410156 243 C 286.597656 242.074219 288.8125 239.96875 290.335938 238.324219 C 293.898438 234.464844 294.410156 233.382812 294.382812 229.75 C 294.363281 227.535156 294.246094 226.835938 293.457031 224.265625 C 292.457031 221.003906 291.25 217.976562 289.503906 214.335938 C 287.78125 210.753906 282.148438 200.492188 280.53125 198 C 275.683594 190.515625 270.433594 181.488281 268.097656 176.617188 C 267.066406 174.46875 265.332031 170.902344 264.246094 168.6875 C 263.15625 166.476562 261.085938 162.136719 259.644531 159.046875 C 253.246094 145.332031 248.902344 139.503906 242.796875 136.433594 C 241.3125 135.691406 238.753906 134.820312 234.59375 133.652344 C 231.265625 132.71875 227.183594 131.492188 225.519531 130.925781 C 220.574219 129.246094 216.277344 126.351562 214.886719 123.773438 C 214.023438 122.171875 213.757812 120.628906 213.316406 114.707031 L 212.925781 109.4375 L 210.683594 106.417969 C 208.089844 102.921875 206.207031 99.527344 204.582031 95.425781 C 203.296875 92.183594 203.195312 91.277344 204.105469 91.238281 C 204.628906 91.214844 204.796875 91.507812 205.800781 94.152344 C 208.0625 100.121094 211.972656 106.253906 215.992188 110.132812 C 218.238281 112.300781 219.980469 113.289062 221.804688 113.421875 C 223.6875 113.558594 224.597656 113.074219 226.335938 111.019531 C 227.933594 109.128906 228.671875 108.800781 228.875 109.886719 C 229.027344 110.691406 226.15625 113.898438 224.734375 114.519531 C 222.230469 115.605469 218.863281 114.789062 216.125 112.425781 L 214.710938 111.207031 L 215.035156 116.175781 C 215.347656 120.914062 215.394531 121.214844 216.078125 122.539062 C 217.203125 124.707031 219.636719 126.695312 222.953125 128.148438 C 225.144531 129.113281 231.910156 131.34375 234.910156 132.097656 C 240.121094 133.40625 242.226562 134.195312 245.335938 136.007812 C 250.285156 138.890625 255.46875 146.15625 260.753906 157.625 C 268.375 174.148438 273.648438 184.125 280.410156 194.808594 C 283.257812 199.3125 288.238281 208.15625 290.519531 212.757812 C 294.421875 220.648438 296.375 227.164062 296.011719 231.085938 C 295.722656 234.171875 294.847656 235.792969 291.511719 239.394531 C 286.308594 245.015625 281.589844 248.089844 273.484375 251.148438 C 264.972656 254.359375 261.636719 255.273438 252.042969 257.015625 C 249 257.570312 244.480469 258.542969 242 259.175781 L 237.492188 260.332031 L 235.980469 261.765625 C 233.746094 263.878906 231.796875 265.457031 229.253906 267.199219 L 226.988281 268.757812 L 226.929688 270.53125 C 226.878906 271.996094 226.667969 272.777344 225.699219 275.015625 C 224.589844 277.589844 222.796875 280.808594 221.585938 282.398438 C 221.257812 282.828125 221.042969 283.457031 221.0625 283.917969 C 221.117188 285.242188 220.144531 287.171875 218.753906 288.503906 C 218.046875 289.183594 217.382812 289.738281 217.28125 289.742188 C 217.175781 289.75 217.101562 290.039062 217.117188 290.386719 C 217.167969 291.523438 216.53125 292.410156 213.195312 295.851562 C 208.097656 301.113281 206.964844 302.117188 204.652344 303.414062 C 202.769531 304.472656 202.296875 304.632812 200.898438 304.695312 C 199.304688 304.765625 194.78125 304.273438 188.78125 303.378906 C 187.054688 303.121094 184.683594 302.78125 183.507812 302.625 C 176.882812 301.742188 174.699219 301.378906 162.90625 299.1875 C 151.402344 297.050781 142.679688 294.617188 130.285156 290.085938 C 110.570312 282.878906 97.761719 275.9375 88.398438 267.386719 C 84.746094 264.054688 84.09375 262.90625 83.964844 259.605469 C 83.890625 257.679688 84.015625 256.585938 84.65625 253.710938 " fill-opacity="1" fill-rule="nonzero"/></g></g></g></g></g><path fill="#0c3a76" d="M 349.039062 237.484375 L 348.300781 227.945312 L 338.761719 227.207031 L 348.300781 226.472656 L 349.039062 216.933594 L 349.777344 226.472656 L 359.3125 227.207031 L 349.777344 227.945312 L 349.039062 237.484375 " fill-opacity="1" fill-rule="nonzero"/><path fill="#0c3a76" d="M 222.28125 359.527344 L 221.542969 349.988281 L 212.003906 349.253906 L 221.542969 348.515625 L 222.28125 338.976562 L 223.015625 348.515625 L 232.554688 349.253906 L 223.015625 349.988281 L 222.28125 359.527344 " fill-opacity="1" fill-rule="nonzero"/><path fill="#0c3a76" d="M 63.699219 288.871094 L 62.960938 279.332031 L 53.421875 278.59375 L 62.960938 277.859375 L 63.699219 268.320312 L 64.4375 277.859375 L 73.972656 278.59375 L 64.4375 279.332031 L 63.699219 288.871094 " fill-opacity="1" fill-rule="nonzero"/><path fill="#0c3a76" d="M 283.074219 327.332031 L 282.335938 317.792969 L 272.796875 317.054688 L 282.335938 316.316406 L 283.074219 306.78125 L 283.808594 316.316406 L 293.351562 317.054688 L 283.808594 317.792969 L 283.074219 327.332031 " fill-opacity="1" fill-rule="nonzero"/><path fill="#0c3a76" d="M 27.796875 157.101562 L 27.0625 147.5625 L 17.523438 146.828125 L 27.0625 146.089844 L 27.796875 136.550781 L 28.535156 146.089844 L 38.074219 146.828125 L 28.535156 147.5625 L 27.796875 157.101562 " fill-opacity="1" fill-rule="nonzero"/><path fill="#0c3a76" d="M 84.25 320.761719 L 83.511719 311.226562 L 73.972656 310.488281 L 83.511719 309.75 L 84.25 300.210938 L 84.988281 309.75 L 94.523438 310.488281 L 84.988281 311.226562 L 84.25 320.761719 " fill-opacity="1" fill-rule="nonzero"/><g clip-path="url(#dab31109b3)"><path fill="#0c3a76" d="M 27.15625 213.742188 L 42.722656 212.539062 L 27.15625 211.335938 L 30.601562 206.273438 L 25.453125 209.636719 L 24.25 194.070312 L 23.046875 209.636719 L 17.898438 206.273438 L 21.34375 211.335938 L 5.777344 212.539062 L 21.34375 213.742188 L 17.898438 218.808594 L 23.046875 215.445312 L 24.25 231.011719 L 25.453125 215.445312 L 30.601562 218.808594 L 27.15625 213.742188 " fill-opacity="1" fill-rule="nonzero"/></g><path fill="#0c3a76" d="M 127.054688 341.71875 L 142.625 340.511719 L 127.054688 339.308594 L 130.5 334.246094 L 125.355469 337.609375 L 124.152344 322.042969 L 122.949219 337.609375 L 117.800781 334.246094 L 121.246094 339.308594 L 105.679688 340.511719 L 121.246094 341.71875 L 117.800781 346.78125 L 122.949219 343.417969 L 124.152344 358.984375 L 125.355469 343.417969 L 130.5 346.78125 L 127.054688 341.71875 " fill-opacity="1" fill-rule="nonzero"/><path fill="#0c3a76" d="M 314.726562 285.886719 L 330.292969 284.683594 L 314.726562 283.480469 L 318.171875 278.417969 L 313.023438 281.78125 L 311.824219 266.210938 L 310.617188 281.78125 L 305.472656 278.417969 L 308.914062 283.480469 L 293.351562 284.683594 L 308.914062 285.886719 L 305.472656 290.949219 L 310.617188 287.589844 L 311.824219 303.15625 L 313.023438 287.589844 L 318.171875 290.949219 L 314.726562 285.886719 " fill-opacity="1" fill-rule="nonzero"/><path fill="#0c3a76" d="M 351.941406 149.078125 L 367.511719 147.875 L 351.941406 146.671875 L 355.386719 141.605469 L 350.242188 144.96875 L 349.039062 129.402344 L 347.835938 144.96875 L 342.6875 141.605469 L 346.132812 146.671875 L 330.566406 147.875 L 346.132812 149.078125 L 342.6875 154.140625 L 347.835938 150.777344 L 349.039062 166.34375 L 350.242188 150.777344 L 355.386719 154.140625 L 351.941406 149.078125 " fill-opacity="1" fill-rule="nonzero"/><path fill="#0c3a76" d="M 19.601562 174.296875 L 15.691406 175.117188 L 15.070312 179.0625 L 14.25 175.15625 L 10.304688 174.535156 L 14.210938 173.710938 L 14.832031 169.765625 L 15.65625 173.671875 L 19.601562 174.296875 " fill-opacity="1" fill-rule="nonzero"/><path fill="#0c3a76" d="M 47.371094 258.886719 L 43.464844 259.710938 L 42.84375 263.65625 L 42.019531 259.75 L 38.074219 259.128906 L 41.980469 258.304688 L 42.601562 254.359375 L 43.425781 258.265625 L 47.371094 258.886719 " fill-opacity="1" fill-rule="nonzero"/><path fill="#0c3a76" d="M 105.410156 331.863281 L 101.503906 332.683594 L 100.882812 336.628906 L 100.058594 332.722656 L 96.113281 332.101562 L 100.019531 331.277344 L 100.644531 327.332031 L 101.464844 331.238281 L 105.410156 331.863281 " fill-opacity="1" fill-rule="nonzero"/><path fill="#0c3a76" d="M 199.027344 349.132812 L 195.121094 349.957031 L 194.496094 353.902344 L 193.675781 349.992188 L 189.730469 349.371094 L 193.636719 348.550781 L 194.257812 344.601562 L 195.082031 348.511719 L 199.027344 349.132812 " fill-opacity="1" fill-rule="nonzero"/><path fill="#0c3a76" d="M 162.707031 346.792969 L 158.800781 347.613281 L 158.179688 351.558594 L 157.355469 347.652344 L 153.410156 347.03125 L 157.320312 346.207031 L 157.941406 342.261719 L 158.761719 346.171875 L 162.707031 346.792969 " fill-opacity="1" fill-rule="nonzero"/><path fill="#0c3a76" d="M 283.074219 340.4375 L 279.164062 341.261719 L 278.542969 345.207031 L 277.71875 341.296875 L 273.773438 340.675781 L 277.683594 339.851562 L 278.304688 335.90625 L 279.128906 339.816406 L 283.074219 340.4375 " fill-opacity="1" fill-rule="nonzero"/><path fill="#0c3a76" d="M 250.777344 338.859375 L 246.871094 339.679688 L 246.246094 343.625 L 245.425781 339.71875 L 241.480469 339.097656 L 245.386719 338.273438 L 246.007812 334.328125 L 246.832031 338.238281 L 250.777344 338.859375 " fill-opacity="1" fill-rule="nonzero"/><path fill="#0c3a76" d="M 47.371094 227.085938 L 43.464844 227.910156 L 42.84375 231.855469 L 42.019531 227.949219 L 38.074219 227.328125 L 41.980469 226.503906 L 42.601562 222.558594 L 43.425781 226.46875 L 47.371094 227.085938 " fill-opacity="1" fill-rule="nonzero"/><path fill="#0c3a76" d="M 349.039062 202.867188 L 345.128906 203.6875 L 344.507812 207.632812 L 343.6875 203.726562 L 339.742188 203.105469 L 343.648438 202.28125 L 344.269531 198.335938 L 345.09375 202.242188 L 349.039062 202.867188 " fill-opacity="1" fill-rule="nonzero"/><path fill="#0c3a76" d="M 343.410156 253.101562 L 339.503906 253.925781 L 338.882812 257.871094 L 338.058594 253.960938 L 334.113281 253.339844 L 338.023438 252.515625 L 338.644531 248.570312 L 339.464844 252.480469 L 343.410156 253.101562 " fill-opacity="1" fill-rule="nonzero"/><path fill="#0c3a76" d="M 311.1875 310.460938 C 310.515625 309.761719 310.535156 308.640625 311.234375 307.960938 C 311.582031 307.617188 312.035156 307.449219 312.492188 307.449219 C 312.941406 307.449219 313.394531 307.613281 313.738281 307.957031 C 314.082031 308.296875 314.25 308.753906 314.25 309.210938 C 314.242188 309.660156 314.054688 310.117188 313.699219 310.464844 C 312.988281 311.160156 311.863281 311.160156 311.1875 310.460938 " fill-opacity="1" fill-rule="nonzero"/><path fill="#0c3a76" d="M 318.570312 268.488281 C 317.753906 267.957031 317.488281 266.953125 317.941406 266.226562 C 318.394531 265.5 319.429688 265.328125 320.253906 265.84375 C 321.078125 266.351562 321.371094 267.375 320.90625 268.117188 C 320.4375 268.863281 319.375 269.019531 318.570312 268.488281 " fill-opacity="1" fill-rule="nonzero"/><g clip-path="url(#8105c4c5a4)"><path fill="#0c3a76" d="M 368.285156 237.027344 C 367.722656 236.863281 367.414062 236.238281 367.59375 235.636719 C 367.773438 235.03125 368.355469 234.664062 368.921875 234.820312 C 369.484375 234.976562 369.816406 235.605469 369.632812 236.21875 C 369.453125 236.832031 368.847656 237.191406 368.285156 237.027344 " fill-opacity="1" fill-rule="nonzero"/></g><path fill="#0c3a76" d="M 364.347656 194.269531 C 363.757812 194.234375 363.324219 193.730469 363.34375 193.140625 C 363.367188 192.550781 363.859375 192.089844 364.445312 192.113281 C 365.027344 192.140625 365.484375 192.644531 365.464844 193.242188 C 365.445312 193.839844 364.929688 194.300781 364.347656 194.269531 " fill-opacity="1" fill-rule="nonzero"/><path fill="#0c3a76" d="M 282.707031 301.257812 C 282.339844 300.796875 282.359375 300.171875 282.753906 299.855469 C 283.144531 299.539062 283.765625 299.652344 284.136719 300.101562 C 284.507812 300.554688 284.488281 301.183594 284.089844 301.503906 C 283.6875 301.828125 283.070312 301.714844 282.707031 301.257812 " fill-opacity="1" fill-rule="nonzero"/><path fill="#0c3a76" d="M 294.765625 298.875 C 294.601562 298.691406 294.597656 298.425781 294.753906 298.277344 C 294.917969 298.128906 295.179688 298.152344 295.347656 298.332031 C 295.515625 298.507812 295.519531 298.777344 295.355469 298.925781 C 295.195312 299.078125 294.929688 299.054688 294.765625 298.875 " fill-opacity="1" fill-rule="nonzero"/><path fill="#0c3a76" d="M 336.382812 286.617188 C 336.183594 286.476562 336.140625 286.195312 336.28125 285.988281 C 336.425781 285.78125 336.707031 285.726562 336.910156 285.863281 C 337.109375 286 337.152344 286.28125 337.011719 286.492188 C 336.867188 286.703125 336.585938 286.757812 336.382812 286.617188 " fill-opacity="1" fill-rule="nonzero"/><path fill="#0c3a76" d="M 334.289062 231.5625 C 334.058594 231.488281 333.925781 231.261719 333.988281 231.054688 C 334.054688 230.855469 334.300781 230.746094 334.53125 230.820312 C 334.761719 230.894531 334.898438 231.121094 334.828125 231.324219 C 334.765625 231.53125 334.523438 231.636719 334.289062 231.5625 " fill-opacity="1" fill-rule="nonzero"/><path fill="#0c3a76" d="M 357.710938 205.046875 C 357.46875 205.019531 357.292969 204.804688 357.320312 204.566406 C 357.347656 204.328125 357.566406 204.15625 357.808594 204.1875 C 358.050781 204.214844 358.226562 204.429688 358.199219 204.667969 C 358.171875 204.90625 357.953125 205.078125 357.710938 205.046875 " fill-opacity="1" fill-rule="nonzero"/><path fill="#0c3a76" d="M 358.179688 246.78125 C 357.949219 246.695312 357.835938 246.4375 357.925781 246.199219 C 358.011719 245.957031 358.265625 245.832031 358.496094 245.917969 C 358.726562 246 358.839844 246.261719 358.757812 246.503906 C 358.667969 246.742188 358.40625 246.867188 358.179688 246.78125 " fill-opacity="1" fill-rule="nonzero"/><path fill="#0c3a76" d="M 167.097656 358.074219 C 167.160156 357.59375 167.414062 357.191406 167.773438 356.914062 C 168.128906 356.632812 168.59375 356.488281 169.078125 356.542969 C 170.046875 356.652344 170.75 357.527344 170.644531 358.492188 C 170.542969 359.457031 169.65625 360.148438 168.664062 360.035156 C 168.167969 359.976562 167.742188 359.730469 167.460938 359.378906 C 167.175781 359.023438 167.035156 358.554688 167.097656 358.074219 " fill-opacity="1" fill-rule="nonzero"/><path fill="#0c3a76" d="M 204.507812 337.644531 C 204.464844 337.160156 204.597656 336.710938 204.847656 336.367188 C 204.96875 336.195312 205.125 336.054688 205.300781 335.949219 C 205.476562 335.839844 205.675781 335.765625 205.886719 335.742188 C 206.738281 335.644531 207.519531 336.347656 207.632812 337.3125 C 207.746094 338.273438 207.128906 339.140625 206.257812 339.238281 C 206.039062 339.261719 205.828125 339.238281 205.628906 339.171875 C 205.429688 339.101562 205.246094 338.984375 205.089844 338.84375 C 204.773438 338.550781 204.554688 338.125 204.507812 337.644531 " fill-opacity="1" fill-rule="nonzero"/><path fill="#0c3a76" d="M 260.101562 356.90625 C 259.882812 356.367188 260.175781 355.734375 260.757812 355.496094 C 261.339844 355.253906 262 355.5 262.226562 356.039062 C 262.457031 356.578125 262.164062 357.210938 261.574219 357.453125 C 260.980469 357.695312 260.324219 357.449219 260.101562 356.90625 " fill-opacity="1" fill-rule="nonzero"/><path fill="#0c3a76" d="M 291.085938 327.179688 C 290.746094 326.703125 290.859375 326.03125 291.335938 325.683594 C 291.8125 325.335938 292.480469 325.4375 292.828125 325.910156 C 293.175781 326.382812 293.0625 327.050781 292.578125 327.40625 C 292.09375 327.757812 291.425781 327.65625 291.085938 327.179688 " fill-opacity="1" fill-rule="nonzero"/><path fill="#0c3a76" d="M 156.515625 330.078125 C 156.648438 329.507812 157.152344 329.128906 157.644531 329.238281 C 158.136719 329.34375 158.433594 329.894531 158.3125 330.46875 C 158.191406 331.039062 157.6875 331.417969 157.1875 331.304688 C 156.6875 331.199219 156.386719 330.648438 156.515625 330.078125 " fill-opacity="1" fill-rule="nonzero"/><path fill="#0c3a76" d="M 165.894531 338.015625 C 165.933594 337.773438 166.136719 337.609375 166.355469 337.636719 C 166.570312 337.664062 166.71875 337.886719 166.683594 338.128906 C 166.648438 338.371094 166.441406 338.539062 166.222656 338.507812 C 166.003906 338.480469 165.855469 338.253906 165.894531 338.015625 " fill-opacity="1" fill-rule="nonzero"/><g clip-path="url(#970445e6d9)"><path fill="#0c3a76" d="M 201.441406 362.875 C 201.425781 362.632812 201.617188 362.421875 201.867188 362.40625 C 202.121094 362.390625 202.339844 362.574219 202.355469 362.816406 C 202.375 363.058594 202.183594 363.273438 201.925781 363.289062 C 201.675781 363.304688 201.457031 363.117188 201.441406 362.875 " fill-opacity="1" fill-rule="nonzero"/></g><path fill="#0c3a76" d="M 243.183594 326.921875 C 243.097656 326.691406 243.1875 326.445312 243.390625 326.371094 C 243.589844 326.292969 243.824219 326.417969 243.910156 326.644531 C 244 326.871094 243.90625 327.121094 243.703125 327.195312 C 243.5 327.273438 243.265625 327.148438 243.183594 326.921875 " fill-opacity="1" fill-rule="nonzero"/><path fill="#0c3a76" d="M 278.515625 328.707031 C 278.386719 328.5 278.445312 328.230469 278.652344 328.101562 C 278.855469 327.976562 279.121094 328.039062 279.25 328.246094 C 279.378906 328.453125 279.320312 328.726562 279.117188 328.851562 C 278.914062 328.980469 278.644531 328.914062 278.515625 328.707031 " fill-opacity="1" fill-rule="nonzero"/><path fill="#0c3a76" d="M 246.175781 355.082031 C 246.097656 354.847656 246.230469 354.597656 246.472656 354.519531 C 246.714844 354.441406 246.972656 354.566406 247.050781 354.796875 C 247.128906 355.027344 246.996094 355.277344 246.753906 355.359375 C 246.511719 355.4375 246.25 355.3125 246.175781 355.082031 " fill-opacity="1" fill-rule="nonzero"/><path fill="#0c3a76" d="M 40.019531 275.085938 C 40.84375 274.585938 41.933594 274.851562 42.453125 275.679688 C 42.96875 276.503906 42.722656 277.597656 41.90625 278.117188 C 41.085938 278.640625 39.992188 278.375 39.464844 277.527344 C 38.933594 276.683594 39.183594 275.589844 40.019531 275.085938 " fill-opacity="1" fill-rule="nonzero"/><path fill="#0c3a76" d="M 79.320312 291.570312 C 80.019531 290.898438 81.070312 290.847656 81.667969 291.460938 C 82.261719 292.078125 82.210938 293.117188 81.527344 293.808594 C 80.847656 294.5 79.777344 294.566406 79.167969 293.929688 C 78.554688 293.304688 78.625 292.246094 79.320312 291.570312 " fill-opacity="1" fill-rule="nonzero"/><path fill="#0c3a76" d="M 98.917969 347.050781 C 99.207031 346.539062 99.882812 346.375 100.433594 346.679688 C 100.980469 346.988281 101.203125 347.652344 100.921875 348.167969 C 100.644531 348.683594 99.964844 348.847656 99.40625 348.539062 C 98.851562 348.226562 98.632812 347.5625 98.917969 347.050781 " fill-opacity="1" fill-rule="nonzero"/><path fill="#0c3a76" d="M 141.480469 352.785156 C 141.640625 352.222656 142.230469 351.90625 142.804688 352.054688 C 143.375 352.207031 143.710938 352.792969 143.558594 353.359375 C 143.40625 353.921875 142.8125 354.253906 142.234375 354.097656 C 141.652344 353.945312 141.316406 353.347656 141.480469 352.785156 " fill-opacity="1" fill-rule="nonzero"/><path fill="#0c3a76" d="M 55.316406 249.359375 C 55.84375 249.105469 56.453125 249.265625 56.679688 249.714844 C 56.902344 250.167969 56.660156 250.742188 56.132812 251.007812 C 55.609375 251.269531 55 251.109375 54.773438 250.648438 C 54.542969 250.191406 54.789062 249.613281 55.316406 249.359375 " fill-opacity="1" fill-rule="nonzero"/><path fill="#0c3a76" d="M 54.960938 261.636719 C 55.171875 261.515625 55.429688 261.578125 55.539062 261.765625 C 55.652344 261.953125 55.570312 262.203125 55.359375 262.328125 C 55.148438 262.449219 54.886719 262.394531 54.773438 262.203125 C 54.660156 262.015625 54.75 261.757812 54.960938 261.636719 " fill-opacity="1" fill-rule="nonzero"/><path fill="#0c3a76" d="M 57.691406 304.9375 C 57.871094 304.773438 58.15625 304.792969 58.328125 304.976562 C 58.5 305.160156 58.496094 305.445312 58.316406 305.609375 C 58.136719 305.773438 57.851562 305.757812 57.675781 305.574219 C 57.503906 305.386719 57.511719 305.101562 57.691406 304.9375 " fill-opacity="1" fill-rule="nonzero"/><path fill="#0c3a76" d="M 111.851562 315.140625 C 111.976562 314.929688 112.226562 314.847656 112.410156 314.960938 C 112.597656 315.066406 112.644531 315.324219 112.519531 315.539062 C 112.398438 315.746094 112.144531 315.828125 111.960938 315.71875 C 111.773438 315.609375 111.722656 315.347656 111.851562 315.140625 " fill-opacity="1" fill-rule="nonzero"/><path fill="#0c3a76" d="M 132.449219 343.90625 C 132.53125 343.675781 132.78125 343.554688 133.007812 343.632812 C 133.234375 343.714844 133.351562 343.964844 133.269531 344.191406 C 133.1875 344.425781 132.9375 344.546875 132.710938 344.464844 C 132.484375 344.386719 132.367188 344.136719 132.449219 343.90625 " fill-opacity="1" fill-rule="nonzero"/><path fill="#0c3a76" d="M 91.679688 335.015625 C 91.816406 334.8125 92.09375 334.757812 92.308594 334.898438 C 92.519531 335.039062 92.582031 335.316406 92.453125 335.523438 C 92.320312 335.730469 92.039062 335.78125 91.828125 335.640625 C 91.613281 335.5 91.546875 335.21875 91.679688 335.015625 " fill-opacity="1" fill-rule="nonzero"/><g clip-path="url(#b4ad23b7ef)"><path fill="#0c3a76" d="M 25.664062 123.976562 C 26.121094 124.144531 26.460938 124.484375 26.644531 124.890625 C 26.835938 125.304688 26.875 125.789062 26.710938 126.25 C 26.386719 127.167969 25.382812 127.660156 24.464844 127.339844 C 23.546875 127.027344 23.070312 126.003906 23.402344 125.0625 C 23.570312 124.59375 23.902344 124.234375 24.3125 124.035156 C 24.726562 123.84375 25.210938 123.808594 25.664062 123.976562 " fill-opacity="1" fill-rule="nonzero"/></g><path fill="#0c3a76" d="M 37.269531 164.972656 C 38.226562 165.097656 38.933594 165.886719 38.835938 166.738281 C 38.738281 167.585938 37.875 168.195312 36.910156 168.09375 C 35.945312 167.992188 35.242188 167.203125 35.34375 166.328125 C 35.445312 165.453125 36.300781 164.847656 37.269531 164.972656 " fill-opacity="1" fill-rule="nonzero"/><g clip-path="url(#70a58356c5)"><path fill="#0c3a76" d="M 6.144531 214.898438 C 6.722656 214.804688 7.273438 215.230469 7.375 215.851562 C 7.480469 216.472656 7.09375 217.058594 6.519531 217.160156 C 5.941406 217.261719 5.390625 216.835938 5.285156 216.207031 C 5.179688 215.578125 5.566406 214.992188 6.144531 214.898438 " fill-opacity="1" fill-rule="nonzero"/></g><path fill="#0c3a76" d="M 28.195312 251.753906 C 28.734375 251.527344 29.355469 251.792969 29.582031 252.339844 C 29.816406 252.878906 29.574219 253.507812 29.035156 253.738281 C 28.5 253.972656 27.867188 253.714844 27.628906 253.164062 C 27.398438 252.609375 27.65625 251.976562 28.195312 251.753906 " fill-opacity="1" fill-rule="nonzero"/><path fill="#0c3a76" d="M 45.488281 127.296875 C 45.714844 127.386719 45.832031 127.625 45.746094 127.828125 C 45.667969 128.03125 45.421875 128.125 45.195312 128.035156 C 44.96875 127.949219 44.84375 127.707031 44.925781 127.503906 C 45.011719 127.296875 45.261719 127.207031 45.488281 127.296875 " fill-opacity="1" fill-rule="nonzero"/><path fill="#0c3a76" d="M 13.339844 156.421875 C 13.578125 156.460938 13.742188 156.695312 13.699219 156.941406 C 13.660156 157.191406 13.429688 157.363281 13.1875 157.328125 C 12.949219 157.289062 12.785156 157.058594 12.828125 156.804688 C 12.867188 156.554688 13.097656 156.382812 13.339844 156.421875 " fill-opacity="1" fill-rule="nonzero"/><path fill="#0c3a76" d="M 39.15625 205.121094 C 39.398438 205.089844 39.617188 205.234375 39.648438 205.449219 C 39.679688 205.660156 39.503906 205.859375 39.265625 205.894531 C 39.023438 205.929688 38.800781 205.78125 38.773438 205.566406 C 38.742188 205.355469 38.914062 205.152344 39.15625 205.121094 " fill-opacity="1" fill-rule="nonzero"/><path fill="#0c3a76" d="M 29.496094 239.160156 C 29.726562 239.082031 29.980469 239.203125 30.058594 239.429688 C 30.140625 239.652344 30.015625 239.902344 29.785156 239.980469 C 29.554688 240.0625 29.304688 239.941406 29.222656 239.714844 C 29.144531 239.488281 29.265625 239.238281 29.496094 239.160156 " fill-opacity="1" fill-rule="nonzero"/><path fill="#0c3a76" d="M 11.039062 201.738281 C 11.285156 201.714844 11.5 201.902344 11.523438 202.15625 C 11.542969 202.40625 11.367188 202.632812 11.125 202.65625 C 10.882812 202.679688 10.664062 202.496094 10.644531 202.242188 C 10.621094 201.988281 10.796875 201.761719 11.039062 201.738281 " fill-opacity="1" fill-rule="nonzero"/><path fill="#0c3a76" d="M 363.832031 168.136719 C 363.347656 168.179688 362.894531 168.023438 362.546875 167.734375 C 362.203125 167.445312 361.976562 167.023438 361.914062 166.539062 C 361.804688 165.570312 362.496094 164.695312 363.460938 164.582031 C 364.425781 164.472656 365.300781 165.183594 365.414062 166.175781 C 365.472656 166.671875 365.308594 167.140625 365.023438 167.496094 C 364.734375 167.851562 364.316406 168.089844 363.832031 168.136719 " fill-opacity="1" fill-rule="nonzero"/><path fill="#0c3a76" d="M 335.640625 136.199219 C 335.179688 136.351562 334.707031 136.320312 334.320312 136.15625 C 333.933594 135.984375 333.621094 135.683594 333.476562 135.28125 C 333.191406 134.476562 333.703125 133.554688 334.617188 133.230469 C 335.53125 132.90625 336.511719 133.3125 336.800781 134.140625 C 336.949219 134.550781 336.894531 134.988281 336.675781 135.363281 C 336.464844 135.738281 336.101562 136.042969 335.640625 136.199219 " fill-opacity="1" fill-rule="nonzero"/><path fill="#0c3a76" d="M 338.871094 184.648438 C 338.289062 184.648438 337.804688 184.238281 337.800781 183.730469 C 337.792969 183.226562 338.261719 182.8125 338.847656 182.804688 C 339.433594 182.796875 339.914062 183.207031 339.921875 183.71875 C 339.925781 184.230469 339.457031 184.648438 338.871094 184.648438 " fill-opacity="1" fill-rule="nonzero"/><path fill="#0c3a76" d="M 344.527344 173.726562 C 344.28125 173.746094 344.074219 173.582031 344.0625 173.363281 C 344.046875 173.144531 344.234375 172.949219 344.476562 172.933594 C 344.722656 172.914062 344.929688 173.078125 344.941406 173.296875 C 344.957031 173.519531 344.769531 173.710938 344.527344 173.726562 " fill-opacity="1" fill-rule="nonzero"/><path fill="#0c3a76" d="M 360.917969 133.554688 C 360.683594 133.625 360.4375 133.484375 360.363281 133.242188 C 360.292969 133 360.421875 132.746094 360.65625 132.675781 C 360.890625 132.601562 361.136719 132.742188 361.210938 132.988281 C 361.28125 133.230469 361.152344 133.484375 360.917969 133.554688 " fill-opacity="1" fill-rule="nonzero"/></svg>