<svg xmlns="http://www.w3.org/2000/svg" xmlns:xlink="http://www.w3.org/1999/xlink" width="459" zoomAndPan="magnify" viewBox="0 0 344.25 326.999992" height="436" preserveAspectRatio="xMidYMid meet" version="1.0"><defs><clipPath id="6bf3e31423"><path d="M 0.699219 0.589844 L 106.964844 0.589844 L 106.964844 122.574219 L 0.699219 122.574219 Z M 0.699219 0.589844 " clip-rule="nonzero"/></clipPath></defs><path fill="#000000" d="M 246.515625 1.699219 C 223.265625 0.847656 188.554688 4.722656 173.484375 24.996094 C 164.640625 36.890625 162.941406 51.210938 162.183594 65.613281 C 161.003906 87.308594 160.523438 109.15625 161.796875 130.871094 C 128.636719 131.40625 95.527344 131.628906 62.363281 130.648438 C 49.683594 130.285156 36.925781 132.21875 24.316406 133.457031 C 16.542969 134.222656 10.757812 138.25 8.210938 145.710938 C 0.769531 167.707031 4.5 194.957031 5.816406 217.613281 C 6.757812 233.851562 9.171875 250.421875 7.902344 266.683594 C 6.480469 284.878906 5.867188 302.78125 6.222656 321.082031 C 6.273438 323.644531 8.617188 325.269531 11.054688 324.757812 C 29.78125 320.699219 50.292969 325.898438 69.53125 324.351562 C 88.886719 322.78125 108.199219 322.429688 127.640625 322.503906 C 147.265625 322.597656 166.875 323.261719 186.46875 323.921875 C 204.359375 324.554688 220.699219 321.734375 238.332031 319.664062 C 246.238281 318.722656 249.722656 314.632812 250.707031 306.390625 C 252.996094 287.71875 254.984375 271.53125 253.027344 252.601562 C 249.058594 213.992188 246.769531 175.171875 245.402344 136.371094 C 245.328125 134.726562 244.28125 133.101562 242.609375 132.71875 C 231.757812 130.136719 220.753906 130.722656 209.675781 130.816406 C 208.421875 130.816406 207.480469 131.351562 206.882812 132.089844 C 206.292969 132.089844 205.707031 132.089844 205.128906 132.089844 C 204.636719 131.703125 204.027344 131.457031 203.246094 131.457031 C 203.984375 109.582031 202.785156 87.535156 203.34375 65.6875 C 203.675781 52.621094 207.105469 41.535156 220.773438 37.808594 C 232.257812 34.660156 245.660156 37.125 256.996094 39.710938 C 277.625 44.410156 288.980469 55.363281 293.203125 76.195312 C 296.828125 94.3125 294.371094 113.394531 293.726562 131.683594 C 293.632812 134.875 296.863281 135.976562 299.148438 134.980469 C 308.164062 133.894531 317.265625 134.171875 326.367188 134.191406 C 328.644531 134.222656 329.875 132.546875 330.023438 130.765625 C 330.171875 130.285156 330.246094 129.75 330.171875 129.121094 C 325.960938 94.441406 343.5625 58.8125 318.101562 28.980469 C 301 8.960938 271.570312 2.617188 246.515625 1.699219 " fill-opacity="1" fill-rule="nonzero"/><path fill="#333333" d="M 115.085938 179.835938 C 133.160156 166.160156 156.480469 204.167969 129.671875 212.5625 C 127.566406 213.222656 126.601562 215.15625 127.011719 217.257812 C 129.746094 231.546875 132.730469 245.777344 135.5 260.0625 C 128.6875 260.929688 121.875 260.746094 115.042969 260.417969 C 117.074219 245.320312 121.824219 230.832031 120.9375 215.378906 C 120.808594 213.222656 119.234375 212.007812 117.554688 211.78125 C 117.074219 211.601562 116.519531 211.503906 115.855469 211.578125 C 97.558594 213.660156 107.214844 185.828125 115.085938 179.835938 " fill-opacity="1" fill-rule="nonzero"/><path fill="#e6e6e6" d="M 303.0625 54.273438 C 303.289062 54.253906 303.308594 52.320312 302.421875 48.96875 C 301.609375 45.667969 299.609375 40.746094 295 36.335938 C 293.910156 35.195312 292.488281 34.179688 291.140625 33.113281 C 290.457031 32.683594 289.769531 32.203125 289.054688 31.746094 L 288.519531 31.394531 L 288.371094 31.285156 L 288.242188 31.210938 L 288.167969 31.160156 L 287.890625 31.007812 L 286.671875 30.367188 C 283.492188 28.574219 279.933594 27.046875 276.09375 25.660156 C 268.425781 22.914062 259.730469 20.886719 250.277344 20.171875 C 247.894531 20.023438 245.53125 19.871094 243.316406 19.96875 C 242.171875 20 241.027344 20.023438 239.917969 20.042969 C 238.816406 20.097656 237.757812 20.148438 236.65625 20.203125 C 232.367188 20.351562 228.140625 20.503906 224.132812 20.832031 C 216.101562 21.496094 208.65625 22.914062 203.042969 25.882812 C 197.34375 28.757812 193.941406 32.910156 192.414062 36.082031 C 191.484375 37.628906 191.269531 38.898438 190.96875 39.765625 C 190.746094 40.617188 190.691406 41.109375 190.820312 41.183594 C 190.96875 41.238281 191.269531 40.875 191.761719 40.117188 C 192.296875 39.402344 192.820312 38.109375 193.867188 36.890625 C 195.644531 34.308594 199.078125 30.859375 204.359375 28.628906 C 209.597656 26.269531 216.582031 25.199219 224.390625 24.761719 C 228.324219 24.558594 232.460938 24.484375 236.816406 24.390625 C 237.90625 24.335938 238.996094 24.3125 240.121094 24.28125 C 241.210938 24.261719 242.28125 24.230469 243.390625 24.230469 C 245.660156 24.132812 247.820312 24.3125 250.023438 24.464844 C 258.917969 25.125 267.433594 26.953125 274.832031 29.386719 C 278.511719 30.601562 281.964844 31.949219 285.023438 33.519531 L 286.15625 34.050781 L 286.46875 34.203125 L 286.542969 34.234375 L 286.671875 34.308594 L 287.226562 34.640625 C 287.964844 35.066406 288.679688 35.492188 289.386719 35.929688 C 290.660156 36.847656 291.898438 37.574219 292.949219 38.566406 C 297.34375 42.273438 299.578125 46.511719 300.851562 49.535156 C 302.164062 52.542969 302.699219 54.347656 303.0625 54.273438 Z M 322.292969 126.558594 C 318.410156 126.535156 314.550781 126.535156 310.6875 126.613281 C 311.007812 119.703125 311.246094 113.800781 311.394531 108.800781 C 311.414062 102.707031 311.246094 97.933594 311.117188 94.3125 C 310.839844 87.054688 310.355469 84.320312 309.84375 84.320312 C 309.308594 84.320312 308.804688 87.054688 308.421875 94.28125 C 308.195312 97.910156 308.089844 102.664062 307.867188 108.714844 C 307.554688 113.765625 307.222656 119.734375 306.871094 126.738281 C 305.097656 126.835938 303.308594 126.984375 301.535156 127.144531 C 302.421875 106.667969 304.207031 85.933594 298.582031 65.945312 C 292.285156 43.585938 274.007812 35.246094 252.824219 30.976562 C 235.714844 27.527344 207.105469 25.457031 199.355469 45.773438 C 194.960938 57.296875 195.515625 69.746094 195.847656 81.875 C 196.304688 98.316406 196.253906 115.316406 195.621094 131.832031 C 194.070312 131.832031 192.542969 131.8125 191.023438 131.757812 C 190.992188 128.992188 190.96875 126.355469 190.917969 123.921875 C 190.714844 120.195312 190.5625 116.789062 190.414062 113.746094 C 190.15625 107.703125 189.773438 102.984375 189.699219 99.386719 C 189.621094 92.210938 189.238281 89.414062 188.703125 89.390625 C 188.179688 89.335938 187.613281 92.050781 187.003906 99.363281 C 186.726562 103.015625 186.832031 107.789062 186.875 113.894531 C 186.980469 116.9375 187.054688 120.3125 187.164062 124.050781 C 187.183594 126.375 187.183594 128.894531 187.207031 131.554688 C 181.261719 131.128906 175.347656 130.464844 169.402344 130.230469 C 168.425781 112.988281 168.683594 95.753906 169.292969 78.480469 C 169.828125 63.402344 169.496094 47.496094 176.683594 33.796875 C 188.328125 11.621094 224.644531 8.9375 246.515625 9.3125 C 270.351562 9.699219 295.996094 16.519531 312.71875 34.363281 C 336.300781 59.527344 319.777344 96.265625 322.292969 126.558594 " fill-opacity="1" fill-rule="nonzero"/><path fill="#ddb717" d="M 32.785156 233.90625 C 33.117188 212.261719 32.046875 192.753906 32.199219 178.671875 C 32.089844 164.558594 31.738281 155.8125 31.160156 155.757812 C 30.570312 155.757812 29.835938 164.460938 29.148438 178.621094 C 28.230469 192.777344 28.839844 212.335938 28.507812 233.796875 C 27.929688 255.292969 27.085938 274.90625 28.1875 289.117188 C 28.839844 296.238281 29.425781 302.003906 30.347656 305.824219 C 31.128906 309.667969 31.683594 311.792969 31.996094 311.792969 C 32.304688 311.773438 32.273438 309.5625 31.996094 305.601562 C 31.585938 301.652344 31.460938 295.960938 31.234375 288.988281 C 30.902344 274.925781 32.21875 255.546875 32.785156 233.90625 Z M 135.039062 218.660156 C 146.902344 213.660156 151.550781 203.839844 148.613281 190.417969 C 145.992188 178.394531 132.472656 167.128906 119.769531 169.972656 C 105.835938 173.066406 99.386719 184.90625 98.039062 198.160156 C 96.949219 209.089844 102.382812 219.191406 113.417969 219.320312 C 113.386719 234.460938 108.53125 248.96875 106.957031 264.023438 C 106.753906 266.148438 108.863281 267.71875 110.765625 267.828125 C 120.957031 268.339844 130.945312 268.710938 141.007812 266.832031 C 143.167969 266.460938 144.035156 264.066406 143.679688 262.167969 C 140.878906 247.65625 137.863281 233.167969 135.039062 218.660156 Z M 228.046875 281.066406 C 228.25 266.535156 228.25 246.441406 227.972656 224.265625 C 227.769531 202.085938 227.363281 181.992188 226.847656 167.449219 C 226.347656 152.917969 225.734375 143.941406 225.125 143.941406 C 224.539062 143.941406 224.078125 152.941406 223.820312 167.449219 C 223.542969 181.992188 223.492188 202.085938 223.671875 224.285156 C 223.949219 246.492188 224.441406 266.554688 225.019531 281.097656 C 225.574219 295.628906 226.238281 304.621094 226.828125 304.621094 C 227.414062 304.621094 227.84375 295.609375 228.046875 281.066406 Z M 243.832031 238.347656 C 245.734375 257.339844 248.34375 275.515625 244.972656 294.539062 C 244.226562 298.703125 244.203125 311.773438 238.332031 312.050781 C 230.207031 312.425781 221.992188 314.710938 213.917969 315.703125 C 196.734375 317.785156 179.152344 316.03125 161.925781 315.519531 C 143.960938 315.019531 125.992188 314.761719 108.027344 314.945312 C 90.414062 315.113281 72.984375 316.84375 55.402344 317.65625 C 41.371094 318.316406 27.726562 314.910156 13.824219 316.609375 C 13.621094 288.402344 16.339844 260.597656 14.414062 232.410156 C 12.832031 209.113281 10.875 185.238281 12.628906 161.878906 C 13.011719 156.550781 14.050781 151.167969 16.242188 146.246094 C 19.417969 139.144531 30.648438 140.695312 36.816406 140.257812 C 50.269531 139.347656 62.824219 138.304688 76.363281 138.707031 C 105.738281 139.59375 135.191406 138.933594 164.566406 138.429688 C 164.972656 138.429688 165.324219 138.355469 165.65625 138.25 C 166.503906 138.335938 167.316406 138.207031 168.019531 137.824219 C 178.0625 138.046875 187.996094 139.796875 198.027344 139.390625 C 198.445312 139.574219 198.871094 139.703125 199.300781 139.703125 C 202.679688 139.703125 237.777344 136.625 237.875 139.519531 C 239.070312 172.425781 240.546875 205.589844 243.832031 238.347656 " fill-opacity="1" fill-rule="nonzero"/><path fill="#000000" d="M 244.972656 294.539062 C 248.34375 275.515625 245.734375 257.339844 243.832031 238.347656 C 240.546875 205.589844 239.070312 172.425781 237.875 139.519531 C 237.777344 136.625 202.679688 139.703125 199.300781 139.703125 C 198.871094 139.703125 198.445312 139.574219 198.027344 139.390625 C 187.996094 139.796875 178.0625 138.046875 168.019531 137.824219 C 167.316406 138.207031 166.503906 138.335938 165.65625 138.25 C 165.324219 138.355469 164.972656 138.429688 164.566406 138.429688 C 135.191406 138.933594 105.738281 139.59375 76.363281 138.707031 C 62.824219 138.304688 50.269531 139.347656 36.816406 140.257812 C 30.648438 140.695312 19.417969 139.144531 16.242188 146.246094 C 14.050781 151.167969 13.011719 156.550781 12.628906 161.878906 C 10.875 185.238281 12.832031 209.113281 14.414062 232.410156 C 16.339844 260.597656 13.621094 288.402344 13.824219 316.609375 C 27.726562 314.910156 41.371094 318.316406 55.402344 317.65625 C 72.984375 316.84375 90.414062 315.113281 108.027344 314.945312 C 125.992188 314.761719 143.960938 315.019531 161.925781 315.519531 C 179.152344 316.03125 196.734375 317.785156 213.917969 315.703125 C 221.992188 314.710938 230.207031 312.425781 238.332031 312.050781 C 244.203125 311.773438 244.226562 298.703125 244.972656 294.539062 Z M 310.6875 126.613281 C 314.550781 126.535156 318.410156 126.535156 322.292969 126.558594 C 319.777344 96.265625 336.300781 59.527344 312.71875 34.363281 C 295.996094 16.519531 270.351562 9.699219 246.515625 9.3125 C 224.644531 8.9375 188.328125 11.621094 176.683594 33.796875 C 169.496094 47.496094 169.828125 63.402344 169.292969 78.480469 C 168.683594 95.753906 168.425781 112.988281 169.402344 130.230469 C 175.347656 130.464844 181.261719 131.128906 187.207031 131.554688 C 187.183594 128.894531 187.183594 126.375 187.164062 124.050781 C 187.054688 120.3125 186.980469 116.9375 186.875 113.894531 C 186.832031 107.789062 186.726562 103.015625 187.003906 99.363281 C 187.613281 92.050781 188.179688 89.335938 188.703125 89.390625 C 189.238281 89.414062 189.621094 92.210938 189.699219 99.386719 C 189.773438 102.984375 190.15625 107.703125 190.414062 113.746094 C 190.5625 116.789062 190.714844 120.195312 190.917969 123.921875 C 190.96875 126.355469 190.992188 128.992188 191.023438 131.757812 C 192.542969 131.8125 194.070312 131.832031 195.621094 131.832031 C 196.253906 115.316406 196.304688 98.316406 195.847656 81.875 C 195.515625 69.746094 194.960938 57.296875 199.355469 45.773438 C 207.105469 25.457031 235.714844 27.527344 252.824219 30.976562 C 274.007812 35.246094 292.285156 43.585938 298.582031 65.945312 C 304.207031 85.933594 302.421875 106.667969 301.535156 127.144531 C 303.308594 126.984375 305.097656 126.835938 306.871094 126.738281 C 307.222656 119.734375 307.554688 113.765625 307.867188 108.714844 C 308.089844 102.664062 308.195312 97.910156 308.421875 94.28125 C 308.804688 87.054688 309.308594 84.320312 309.84375 84.320312 C 310.355469 84.320312 310.839844 87.054688 311.117188 94.3125 C 311.246094 97.933594 311.414062 102.707031 311.394531 108.800781 C 311.246094 113.800781 311.007812 119.703125 310.6875 126.613281 Z M 330.171875 129.121094 C 330.246094 129.75 330.171875 130.285156 330.023438 130.765625 C 329.875 132.546875 328.644531 134.222656 326.367188 134.191406 C 317.265625 134.171875 308.164062 133.894531 299.148438 134.980469 C 296.863281 135.976562 293.632812 134.875 293.726562 131.683594 C 294.371094 113.394531 296.828125 94.3125 293.203125 76.195312 C 288.980469 55.363281 277.625 44.410156 256.996094 39.710938 C 245.660156 37.125 232.257812 34.660156 220.773438 37.808594 C 207.105469 41.535156 203.675781 52.621094 203.34375 65.6875 C 202.785156 87.535156 203.984375 109.582031 203.246094 131.457031 C 204.027344 131.457031 204.636719 131.703125 205.128906 132.089844 C 205.707031 132.089844 206.292969 132.089844 206.882812 132.089844 C 207.480469 131.351562 208.421875 130.816406 209.675781 130.816406 C 220.753906 130.722656 231.757812 130.136719 242.609375 132.71875 C 244.28125 133.101562 245.328125 134.726562 245.402344 136.371094 C 246.769531 175.171875 249.058594 213.992188 253.027344 252.601562 C 254.984375 271.53125 252.996094 287.71875 250.707031 306.390625 C 249.722656 314.632812 246.238281 318.722656 238.332031 319.664062 C 220.699219 321.734375 204.359375 324.554688 186.46875 323.921875 C 166.875 323.261719 147.265625 322.597656 127.640625 322.503906 C 108.199219 322.429688 88.886719 322.78125 69.53125 324.351562 C 50.292969 325.898438 29.78125 320.699219 11.054688 324.757812 C 8.617188 325.269531 6.273438 323.644531 6.222656 321.082031 C 5.867188 302.78125 6.480469 284.878906 7.902344 266.683594 C 9.171875 250.421875 6.757812 233.851562 5.816406 217.613281 C 4.5 194.957031 0.769531 167.707031 8.210938 145.710938 C 10.757812 138.25 16.542969 134.222656 24.316406 133.457031 C 36.925781 132.21875 49.683594 130.285156 62.363281 130.648438 C 95.527344 131.628906 128.636719 131.40625 161.796875 130.871094 C 160.523438 109.15625 161.003906 87.308594 162.183594 65.613281 C 162.941406 51.199219 164.640625 36.890625 173.484375 24.996094 C 188.554688 4.722656 223.265625 0.847656 246.515625 1.699219 C 271.570312 2.617188 301 8.960938 318.101562 28.980469 C 343.5625 58.8125 325.960938 94.441406 330.171875 129.121094 " fill-opacity="1" fill-rule="nonzero"/><path fill="#000000" d="M 302.421875 48.96875 C 303.308594 52.320312 303.289062 54.253906 303.0625 54.273438 C 302.699219 54.347656 302.164062 52.542969 300.851562 49.535156 C 299.578125 46.511719 297.34375 42.273438 292.949219 38.566406 C 291.898438 37.574219 290.660156 36.847656 289.386719 35.929688 C 288.679688 35.492188 287.964844 35.066406 287.226562 34.640625 L 286.671875 34.308594 L 286.542969 34.234375 L 286.46875 34.203125 L 286.15625 34.050781 L 285.023438 33.519531 C 281.964844 31.949219 278.511719 30.601562 274.832031 29.386719 C 267.433594 26.953125 258.917969 25.125 250.023438 24.464844 C 247.820312 24.3125 245.660156 24.132812 243.390625 24.230469 C 242.28125 24.230469 241.210938 24.261719 240.121094 24.28125 C 238.996094 24.3125 237.90625 24.335938 236.816406 24.390625 C 232.460938 24.484375 228.324219 24.558594 224.390625 24.761719 C 216.582031 25.199219 209.597656 26.269531 204.359375 28.628906 C 199.078125 30.859375 195.644531 34.308594 193.867188 36.890625 C 192.820312 38.109375 192.296875 39.402344 191.761719 40.117188 C 191.269531 40.875 190.96875 41.238281 190.820312 41.183594 C 190.691406 41.109375 190.746094 40.617188 190.96875 39.765625 C 191.269531 38.898438 191.484375 37.628906 192.414062 36.082031 C 193.941406 32.910156 197.34375 28.757812 203.042969 25.882812 C 208.65625 22.914062 216.101562 21.496094 224.132812 20.832031 C 228.140625 20.503906 232.367188 20.351562 236.65625 20.203125 C 237.757812 20.148438 238.816406 20.097656 239.917969 20.042969 C 241.027344 20.023438 242.171875 20 243.316406 19.96875 C 245.53125 19.871094 247.894531 20.023438 250.277344 20.171875 C 259.730469 20.886719 268.425781 22.914062 276.09375 25.660156 C 279.933594 27.046875 283.492188 28.574219 286.671875 30.367188 L 287.890625 31.007812 L 288.167969 31.160156 L 288.242188 31.210938 L 288.371094 31.285156 L 288.519531 31.394531 L 289.054688 31.746094 C 289.769531 32.203125 290.457031 32.683594 291.140625 33.113281 C 292.488281 34.179688 293.910156 35.195312 295 36.335938 C 299.609375 40.746094 301.609375 45.667969 302.421875 48.96875 " fill-opacity="1" fill-rule="nonzero"/><path fill="#000000" d="M 227.972656 224.265625 C 228.25 246.441406 228.25 266.535156 228.046875 281.066406 C 227.84375 295.609375 227.414062 304.621094 226.828125 304.621094 C 226.238281 304.621094 225.574219 295.628906 225.019531 281.097656 C 224.441406 266.554688 223.949219 246.492188 223.671875 224.285156 C 223.492188 202.085938 223.542969 181.992188 223.820312 167.449219 C 224.078125 152.941406 224.539062 143.941406 225.125 143.941406 C 225.734375 143.941406 226.347656 152.917969 226.847656 167.449219 C 227.363281 181.992188 227.769531 202.085938 227.972656 224.265625 " fill-opacity="1" fill-rule="nonzero"/><path fill="#000000" d="M 129.671875 212.5625 C 156.480469 204.167969 133.160156 166.160156 115.085938 179.835938 C 107.214844 185.828125 97.558594 213.660156 115.855469 211.578125 C 116.519531 211.503906 117.074219 211.601562 117.554688 211.78125 C 119.234375 212.007812 120.808594 213.222656 120.9375 215.378906 C 121.824219 230.832031 117.074219 245.320312 115.042969 260.417969 C 121.875 260.746094 128.6875 260.929688 135.5 260.0625 C 132.730469 245.777344 129.746094 231.546875 127.011719 217.257812 C 126.601562 215.15625 127.566406 213.222656 129.671875 212.5625 Z M 148.613281 190.417969 C 151.550781 203.839844 146.902344 213.660156 135.039062 218.660156 C 137.863281 233.167969 140.878906 247.65625 143.679688 262.167969 C 144.035156 264.066406 143.167969 266.460938 141.007812 266.832031 C 130.945312 268.710938 120.957031 268.339844 110.765625 267.828125 C 108.863281 267.71875 106.753906 266.148438 106.957031 264.023438 C 108.53125 248.96875 113.386719 234.460938 113.417969 219.320312 C 102.382812 219.191406 96.949219 209.089844 98.039062 198.160156 C 99.386719 184.90625 105.835938 173.066406 119.769531 169.972656 C 132.472656 167.128906 145.992188 178.394531 148.613281 190.417969 " fill-opacity="1" fill-rule="nonzero"/><path fill="#000000" d="M 32.199219 178.671875 C 32.046875 192.753906 33.117188 212.261719 32.785156 233.90625 C 32.21875 255.546875 30.902344 274.925781 31.234375 288.988281 C 31.460938 295.960938 31.585938 301.652344 31.996094 305.601562 C 32.273438 309.5625 32.304688 311.773438 31.996094 311.792969 C 31.683594 311.792969 31.128906 309.667969 30.347656 305.824219 C 29.425781 302.003906 28.839844 296.238281 28.1875 289.117188 C 27.085938 274.90625 27.929688 255.292969 28.507812 233.796875 C 28.839844 212.335938 28.230469 192.777344 29.148438 178.621094 C 29.835938 164.460938 30.570312 155.757812 31.160156 155.757812 C 31.738281 155.8125 32.089844 164.558594 32.199219 178.671875 " fill-opacity="1" fill-rule="nonzero"/><g clip-path="url(#6bf3e31423)"><path fill="#ffffff" d="M 0.769531 15.210938 C 15.59375 14.035156 28.503906 7.554688 38.261719 0.589844 L 69.332031 0.589844 C 79.089844 7.554688 92 14.035156 106.824219 15.210938 L 106.824219 61.542969 C 106.824219 91.4375 76.476562 116.554688 53.796875 122.632812 C 31.121094 116.554688 0.769531 91.4375 0.769531 61.542969 Z M 34.269531 56.527344 L 45.253906 70.425781 C 46.308594 71.765625 48.25 71.992188 49.589844 70.9375 C 49.683594 70.859375 49.773438 70.78125 49.855469 70.695312 L 49.867188 70.707031 L 73.09375 47.480469 C 74.304688 46.269531 74.304688 44.304688 73.09375 43.09375 C 71.882812 41.882812 69.917969 41.882812 68.707031 43.09375 L 47.9375 63.867188 L 39.117188 52.699219 C 38.058594 51.363281 36.117188 51.132812 34.78125 52.191406 C 33.441406 53.246094 33.214844 55.1875 34.269531 56.527344 Z M 53.796875 25.453125 C 36.429688 25.453125 22.351562 39.53125 22.351562 56.898438 C 22.351562 74.269531 36.429688 88.347656 53.796875 88.347656 C 71.164062 88.347656 85.246094 74.269531 85.246094 56.898438 C 85.246094 39.53125 71.164062 25.453125 53.796875 25.453125 Z M 53.796875 25.453125 " fill-opacity="1" fill-rule="evenodd"/></g></svg>